HIERARCHY
ROOT newVegas:Hips
{
	OFFSET 0.000000 96.479958 0.000000
	CHANNELS 6 Xposition Yposition Zposition Xrotation Yrotation Zrotation
	JOINT newVegas:Pelvis
	{
		OFFSET 0.000000 0.000000 0.000000
		CHANNELS 3 Xrotation Yrotation Zrotation
		JOINT newVegas:LeftUpLeg
		{
			OFFSET 18.735201 -5.666702 -4.541200
			CHANNELS 3 Xrotation Yrotation Zrotation
			JOINT newVegas:LeftLeg
			{
				OFFSET -0.021200 -31.938179 0.493100
				CHANNELS 3 Xrotation Yrotation Zrotation
				JOINT newVegas:LeftFoot
				{
					OFFSET 0.021200 -31.938179 -4.336299
					CHANNELS 3 Xrotation Yrotation Zrotation
					JOINT newVegas:LeftToeBase
					{
						OFFSET 0.943001 -26.722000 15.023500
						CHANNELS 3 Xrotation Yrotation Zrotation
						End Site
						{
							OFFSET 0.000000 30.670183 0.000000
						}
					}
				}
				JOINT newVegas:Left_PantLeg
				{
					OFFSET 0.663870 -9.044666 -1.108900
					CHANNELS 3 Xrotation Yrotation Zrotation
					End Site
					{
						OFFSET 1.415995 20.635357 0.000000
					}
				}
			}
		}
		JOINT newVegas:RightUpLeg
		{
			OFFSET -18.735201 -5.666702 -4.541200
			CHANNELS 3 Xrotation Yrotation Zrotation
			JOINT newVegas:RightLeg
			{
				OFFSET 0.018946 -31.938133 0.493100
				CHANNELS 3 Xrotation Yrotation Zrotation
				JOINT newVegas:RightFoot
				{
					OFFSET -0.018946 -31.938126 -4.336299
					CHANNELS 3 Xrotation Yrotation Zrotation
					JOINT newVegas:RightToeBase
					{
						OFFSET -0.943001 -26.722004 15.023500
						CHANNELS 3 Xrotation Yrotation Zrotation
						End Site
						{
							OFFSET 0.000000 30.670187 0.000000
						}
					}
				}
				JOINT newVegas:Right_PantLeg
				{
					OFFSET -0.661674 -9.044716 -1.108900
					CHANNELS 3 Xrotation Yrotation Zrotation
					End Site
					{
						OFFSET -1.415958 20.635269 0.000000
					}
				}
			}
		}
	}
	JOINT newVegas:Spine
	{
		OFFSET 0.000000 10.199997 -0.299500
		CHANNELS 3 Xrotation Yrotation Zrotation
		JOINT newVegas:Spine1
		{
			OFFSET 0.000000 11.900002 -1.516600
			CHANNELS 3 Xrotation Yrotation Zrotation
			JOINT newVegas:Spine2
			{
				OFFSET 0.000000 13.600006 -2.842500
				CHANNELS 3 Xrotation Yrotation Zrotation
				JOINT newVegas:Neck
				{
					OFFSET 0.000000 9.624100 -2.890100
					CHANNELS 3 Xrotation Yrotation Zrotation
					JOINT newVegas:Head
					{
						OFFSET 0.000000 14.068802 -1.351900
						CHANNELS 3 Xrotation Yrotation Zrotation
						JOINT newVegas:Hair_Back
						{
							OFFSET 0.000000 3.231903 -17.524799
							CHANNELS 3 Xrotation Yrotation Zrotation
							End Site
							{
								OFFSET 0.000000 19.849884 0.000000
							}
						}
						JOINT newVegas:Hair_Front
						{
							OFFSET 0.000000 31.260406 4.573800
							CHANNELS 3 Xrotation Yrotation Zrotation
							JOINT newVegas:Hair_Front1
							{
								OFFSET 0.000000 2.284103 11.993300
								CHANNELS 3 Xrotation Yrotation Zrotation
								JOINT newVegas:Hair_Front2
								{
									OFFSET 0.000000 2.284103 11.993300
									CHANNELS 3 Xrotation Yrotation Zrotation
									End Site
									{
										OFFSET 0.000000 12.208862 0.000000
									}
								}
							}
						}
						JOINT newVegas:Jowel
						{
							OFFSET 0.000000 -7.458206 6.864100
							CHANNELS 3 Xrotation Yrotation Zrotation
							End Site
							{
								OFFSET 0.000000 19.849884 0.000000
							}
						}
					}
				}
				JOINT newVegas:LeftShoulder
				{
					OFFSET 15.263000 10.923401 -0.547700
					CHANNELS 3 Xrotation Yrotation Zrotation
					JOINT newVegas:LeftArm
					{
						OFFSET 25.438599 -2.830597 -13.032500
						CHANNELS 3 Xrotation Yrotation Zrotation
						JOINT newVegas:LeftForeArm
						{
							OFFSET 29.960503 0.000000 0.000000
							CHANNELS 3 Xrotation Yrotation Zrotation
							JOINT newVegas:LeftHand
							{
								OFFSET 27.849251 0.000000 0.000000
								CHANNELS 3 Xrotation Yrotation Zrotation
								JOINT newVegas:LeftHandThumb1
								{
									OFFSET 4.487587 -3.305161 6.305391
									CHANNELS 3 Xrotation Yrotation Zrotation
									JOINT newVegas:LeftHandThumb2
									{
										OFFSET 5.480453 -3.164139 3.164143
										CHANNELS 3 Xrotation Yrotation Zrotation
										JOINT newVegas:LeftHandThumb3
										{
											OFFSET 5.159721 -2.978973 2.978967
											CHANNELS 3 Xrotation Yrotation Zrotation
											End Site
											{
												OFFSET 2.494507 5.926697 1.738678
											}
										}
									}
								}
								JOINT newVegas:LeftHandIndex1
								{
									OFFSET 18.578728 -0.527832 5.208049
									CHANNELS 3 Xrotation Yrotation Zrotation
									JOINT newVegas:LeftHandIndex2
									{
										OFFSET 3.192009 0.000000 0.000000
										CHANNELS 3 Xrotation Yrotation Zrotation
										JOINT newVegas:LeftHandIndex3
										{
											OFFSET 3.835129 0.000000 0.000000
											CHANNELS 3 Xrotation Yrotation Zrotation
											End Site
											{
												OFFSET -0.034599 3.816971 0.371180
											}
										}
									}
								}
								JOINT newVegas:LeftHandMiddle1
								{
									OFFSET 18.476105 0.000000 0.000000
									CHANNELS 3 Xrotation Yrotation Zrotation
									JOINT newVegas:LeftHandMiddle2
									{
										OFFSET 3.324875 0.000000 0.000000
										CHANNELS 3 Xrotation Yrotation Zrotation
										JOINT newVegas:LeftHandMiddle3
										{
											OFFSET 4.596550 0.000000 0.000000
											CHANNELS 3 Xrotation Yrotation Zrotation
											End Site
											{
												OFFSET 0.057701 4.578827 0.399218
											}
										}
									}
								}
								JOINT newVegas:LeftHandRing1
								{
									OFFSET 17.732719 0.121887 -4.201567
									CHANNELS 3 Xrotation Yrotation Zrotation
									JOINT newVegas:LeftHandRing2
									{
										OFFSET 2.733170 0.000000 0.000000
										CHANNELS 3 Xrotation Yrotation Zrotation
										JOINT newVegas:LeftHandRing3
										{
											OFFSET 3.178268 0.000000 0.000000
											CHANNELS 3 Xrotation Yrotation Zrotation
											End Site
											{
												OFFSET 0.119102 3.170624 0.185394
											}
										}
									}
								}
								JOINT newVegas:LeftHandPinky1
								{
									OFFSET 15.989624 -0.606689 -7.535461
									CHANNELS 3 Xrotation Yrotation Zrotation
									JOINT newVegas:LeftHandPinky2
									{
										OFFSET 2.538986 0.000000 0.000000
										CHANNELS 3 Xrotation Yrotation Zrotation
										JOINT newVegas:LeftHandPinky3
										{
											OFFSET 2.593102 0.000000 0.000000
											CHANNELS 3 Xrotation Yrotation Zrotation
											End Site
											{
												OFFSET -0.150902 2.584198 0.152708
											}
										}
									}
								}
							}
							JOINT newVegas:Left_Sleeve
							{
								OFFSET 0.267448 -0.649796 0.577675
								CHANNELS 3 Xrotation Yrotation Zrotation
								End Site
								{
									OFFSET 0.000000 15.991241 0.000000
								}
							}
							JOINT newVegas:Left_CapeC
							{
								OFFSET 15.715958 -8.608795 -6.935905
								CHANNELS 3 Xrotation Yrotation Zrotation
								JOINT newVegas:Left_CapeC1
								{
									OFFSET 0.000000 -8.688499 0.000000
									CHANNELS 3 Xrotation Yrotation Zrotation
									End Site
									{
										OFFSET 0.000000 8.688499 0.000000
									}
								}
							}
						}
						JOINT newVegas:Left_CapeB
						{
							OFFSET 26.118385 -8.608795 -7.079235
							CHANNELS 3 Xrotation Yrotation Zrotation
							JOINT newVegas:Left_CapeB1
							{
								OFFSET 0.000000 -8.688499 0.000000
								CHANNELS 3 Xrotation Yrotation Zrotation
								End Site
								{
									OFFSET 0.000000 8.688499 0.000000
								}
							}
						}
						JOINT newVegas:Left_CapeA
						{
							OFFSET 5.115639 -8.608795 -10.395809
							CHANNELS 3 Xrotation Yrotation Zrotation
							JOINT newVegas:Left_CapeA1
							{
								OFFSET 0.000000 -8.688499 0.000000
								CHANNELS 3 Xrotation Yrotation Zrotation
								End Site
								{
									OFFSET 0.000000 8.688499 0.000000
								}
							}
						}
					}
				}
				JOINT newVegas:RightShoulder
				{
					OFFSET -15.263000 10.923401 -0.547700
					CHANNELS 3 Xrotation Yrotation Zrotation
					JOINT newVegas:RightArm
					{
						OFFSET -25.438599 -2.830597 -13.032500
						CHANNELS 3 Xrotation Yrotation Zrotation
						JOINT newVegas:RightForeArm
						{
							OFFSET -29.960503 0.000000 0.000000
							CHANNELS 3 Xrotation Yrotation Zrotation
							JOINT newVegas:RightHand
							{
								OFFSET -27.849251 0.000000 0.000000
								CHANNELS 3 Xrotation Yrotation Zrotation
								JOINT newVegas:RightHandThumb1
								{
									OFFSET -4.487587 -3.305161 6.305391
									CHANNELS 3 Xrotation Yrotation Zrotation
									JOINT newVegas:RightHandThumb2
									{
										OFFSET -5.480453 -3.164139 3.164143
										CHANNELS 3 Xrotation Yrotation Zrotation
										JOINT newVegas:RightHandThumb3
										{
											OFFSET -5.159721 -2.978973 2.978967
											CHANNELS 3 Xrotation Yrotation Zrotation
											End Site
											{
												OFFSET -2.494507 5.926697 1.738678
											}
										}
									}
								}
								JOINT newVegas:RightHandIndex1
								{
									OFFSET -18.578728 -0.527832 5.208049
									CHANNELS 3 Xrotation Yrotation Zrotation
									JOINT newVegas:RightHandIndex2
									{
										OFFSET -3.192009 0.000000 0.000000
										CHANNELS 3 Xrotation Yrotation Zrotation
										JOINT newVegas:RightHandIndex3
										{
											OFFSET -3.835129 0.000000 0.000000
											CHANNELS 3 Xrotation Yrotation Zrotation
											End Site
											{
												OFFSET 0.034599 3.816971 0.371180
											}
										}
									}
								}
								JOINT newVegas:RightHandMiddle1
								{
									OFFSET -18.476105 0.000000 0.000000
									CHANNELS 3 Xrotation Yrotation Zrotation
									JOINT newVegas:RightHandMiddle2
									{
										OFFSET -3.324875 0.000000 0.000000
										CHANNELS 3 Xrotation Yrotation Zrotation
										JOINT newVegas:RightHandMiddle3
										{
											OFFSET -4.596550 0.000000 0.000000
											CHANNELS 3 Xrotation Yrotation Zrotation
											End Site
											{
												OFFSET -0.057701 4.578827 0.399218
											}
										}
									}
								}
								JOINT newVegas:RightHandRing1
								{
									OFFSET -17.732719 0.121887 -4.201567
									CHANNELS 3 Xrotation Yrotation Zrotation
									JOINT newVegas:RightHandRing2
									{
										OFFSET -2.733170 0.000000 0.000000
										CHANNELS 3 Xrotation Yrotation Zrotation
										JOINT newVegas:RightHandRing3
										{
											OFFSET -3.178268 0.000000 0.000000
											CHANNELS 3 Xrotation Yrotation Zrotation
											End Site
											{
												OFFSET -0.119102 3.170624 0.185394
											}
										}
									}
								}
								JOINT newVegas:RightHandPinky1
								{
									OFFSET -15.989624 -0.606689 -7.535461
									CHANNELS 3 Xrotation Yrotation Zrotation
									JOINT newVegas:RightHandPinky2
									{
										OFFSET -2.538986 0.000000 0.000000
										CHANNELS 3 Xrotation Yrotation Zrotation
										JOINT newVegas:RightHandPinky3
										{
											OFFSET -2.593102 0.000000 0.000000
											CHANNELS 3 Xrotation Yrotation Zrotation
											End Site
											{
												OFFSET 0.150902 2.584198 0.152708
											}
										}
									}
								}
							}
							JOINT newVegas:Right_CapeC
							{
								OFFSET -15.715958 -8.608795 -6.935905
								CHANNELS 3 Xrotation Yrotation Zrotation
								JOINT newVegas:Right_CapeC1
								{
									OFFSET 0.000000 -8.688499 0.000000
									CHANNELS 3 Xrotation Yrotation Zrotation
									End Site
									{
										OFFSET 0.000000 8.688499 0.000000
									}
								}
							}
							JOINT newVegas:Right_Sleeve
							{
								OFFSET -0.267448 -0.649994 0.577675
								CHANNELS 3 Xrotation Yrotation Zrotation
								End Site
								{
									OFFSET 0.000000 15.991302 0.000000
								}
							}
						}
						JOINT newVegas:Right_CapeA
						{
							OFFSET -5.115540 -8.608795 -10.395824
							CHANNELS 3 Xrotation Yrotation Zrotation
							JOINT newVegas:Right_CapeA1
							{
								OFFSET 0.000000 -8.688499 0.000000
								CHANNELS 3 Xrotation Yrotation Zrotation
								End Site
								{
									OFFSET 0.000000 8.688499 0.000000
								}
							}
						}
						JOINT newVegas:Right_CapeB
						{
							OFFSET -26.118187 -8.608795 -7.079266
							CHANNELS 3 Xrotation Yrotation Zrotation
							JOINT newVegas:Right_CapeB1
							{
								OFFSET 0.000000 -8.688499 0.000000
								CHANNELS 3 Xrotation Yrotation Zrotation
								End Site
								{
									OFFSET 0.000000 8.688499 0.000000
								}
							}
						}
					}
				}
				JOINT newVegas:Left_Collar
				{
					OFFSET 18.625099 8.655502 8.828100
					CHANNELS 3 Xrotation Yrotation Zrotation
					JOINT newVegas:Left_Collar1
					{
						OFFSET 14.783401 10.540405 -1.259500
						CHANNELS 3 Xrotation Yrotation Zrotation
						End Site
						{
							OFFSET 0.000000 18.199875 0.000000
						}
					}
				}
				JOINT newVegas:Collar_Back
				{
					OFFSET 0.000000 15.630707 -20.132601
					CHANNELS 3 Xrotation Yrotation Zrotation
					End Site
					{
						OFFSET 0.000000 22.523010 0.000000
					}
				}
				JOINT newVegas:Left_Peck
				{
					OFFSET 17.239599 -5.132599 25.482599
					CHANNELS 3 Xrotation Yrotation Zrotation
					End Site
					{
						OFFSET 0.000000 22.523010 0.000000
					}
				}
				JOINT newVegas:Right_Peck
				{
					OFFSET -17.239599 -5.132202 25.482599
					CHANNELS 3 Xrotation Yrotation Zrotation
					End Site
					{
						OFFSET 0.000000 22.523010 0.000000
					}
				}
				JOINT newVegas:Right_Collar
				{
					OFFSET -18.625099 8.655792 8.828100
					CHANNELS 3 Xrotation Yrotation Zrotation
					JOINT newVegas:Right_Collar1
					{
						OFFSET -14.783401 10.539993 -1.259500
						CHANNELS 3 Xrotation Yrotation Zrotation
						End Site
						{
							OFFSET 0.000000 18.199631 0.000000
						}
					}
				}
			}
		}
		JOINT newVegas:Belly
		{
			OFFSET 0.000000 -6.540398 9.014299
			CHANNELS 3 Xrotation Yrotation Zrotation
			End Site
			{
				OFFSET 0.000000 11.566666 0.000000
			}
		}
	}
	JOINT newVegas:ElvisFacialAnim_Joint
	{
		OFFSET 1.000000 -95.330101 -8.825800
		CHANNELS 3 Xrotation Yrotation Zrotation
		End Site
		{
			OFFSET 0.000000 35.315800 0.000000
		}
	}
}
MOTION
Frames: 4
Frame Time: 0.033333
-0.490312 111.822983 2.702515 -95.435692 -7.262165 0.204318 0.000000 -0.000001 -0.000000 -2.962988 13.124604 14.461469 12.908763 -1.060805 5.144367 38.412441 28.512900 -33.832167 0.000003 0.000004 -0.000001 -0.000000 -0.000001 0.000001 -11.473080 -11.990908 -16.743200 18.148642 -1.808781 -5.182367 38.441391 -29.060563 31.866613 -0.000001 0.000001 -0.000001 0.000000 0.000001 -0.000000 0.793563 0.612971 -1.934251 2.188336 1.746990 -0.646569 2.197358 1.731462 -0.652217 -1.538180 5.724276 -1.220105 -1.538154 5.724272 -1.220105 0.000000 0.000001 -0.000000 -1.538123 5.724272 -1.220112 -1.538219 5.724278 -1.220105 0.000000 -0.000000 0.000000 0.000000 0.000001 -0.000000 0.572452 0.116560 -3.288209 22.108130 -32.831944 -61.622260 0.000055 -79.533742 0.000036 -1.698629 7.071829 -14.775620 -5.218579 -3.359708 5.596917 7.385496 23.148028 2.272618 0.000003 -0.000002 0.000000 0.915766 5.403949 -29.714164 0.382361 2.083616 -20.795006 -0.000004 -0.000000 -0.000003 0.656302 4.925771 -25.952622 0.379110 2.075033 -20.705404 -0.000000 -0.000002 -0.000003 0.574707 4.751498 -24.069209 0.379108 2.075040 -20.705406 -0.000000 -0.000002 -0.000001 0.322889 4.082514 -17.072551 0.379109 2.075022 -20.705409 0.000000 0.000000 0.000000 0.000003 0.000001 0.000000 0.000003 0.000001 0.000000 0.000002 0.000000 0.000001 0.000001 0.000000 -0.000001 0.000001 0.000000 -0.000001 0.000001 0.000000 -0.000001 -0.000000 0.000000 -0.000001 0.744176 3.258983 9.951509 38.096910 29.491886 34.413983 0.001143 102.397650 -0.001109 -38.688288 12.168790 12.517769 -8.245044 0.297081 -8.931530 7.579907 -24.795279 -2.907032 0.000000 0.000002 -0.000002 0.905458 -3.314671 34.539457 0.217998 -1.409599 17.581781 0.000000 0.000001 -0.000001 -0.241997 -3.204335 32.825350 0.218116 -1.409975 17.586656 -0.000000 0.000000 -0.000001 -0.300126 -2.822099 28.489354 0.218003 -1.409594 17.581793 -0.000000 0.000001 0.000000 0.330079 -3.878172 20.013573 0.218174 -1.410122 17.588690 0.000002 -0.000000 -0.000000 -0.000001 0.000002 -0.000000 -0.000001 -0.000000 0.000003 -0.000001 0.000002 0.000000 0.000001 0.000003 0.000002 0.000001 0.000003 0.000000 0.000001 0.000003 0.000002 0.000001 0.000003 0.000000 -0.000000 -0.000000 0.000000 -0.000000 -0.000000 0.000000 -0.000000 -0.000000 0.000000 -0.000000 -0.000000 0.000000 -0.000000 -0.000000 0.000000 -0.000000 -0.000000 0.000000 -0.000000 -0.000000 0.000000 0.000000 0.000000 -0.000000 0.000000 -0.000001 -0.000000 
-0.493615 111.824402 2.712318 -95.435679 -7.262700 0.205925 -0.000000 -0.000000 -0.000000 -3.006770 13.110330 14.469595 12.967258 -1.258280 5.144692 38.473472 28.507799 -33.834339 -0.000000 0.000000 0.000002 -0.000000 -0.000000 0.000000 -11.541865 -11.964695 -16.754475 18.158842 -1.426344 -5.178016 38.657812 -29.034974 31.855862 -0.000000 0.000000 -0.000001 -0.000000 -0.000001 -0.000001 0.793585 0.613487 -1.935862 2.188344 1.751241 -0.641324 2.197354 1.693591 -0.635903 -1.457210 5.313085 -1.272076 -1.457219 5.313085 -1.272077 -0.000000 -0.000000 0.000000 -1.457234 5.313095 -1.272074 -1.457172 5.313080 -1.272083 -0.000000 0.000001 -0.000000 -0.000000 -0.000000 -0.000000 0.570915 0.087624 -3.339005 22.153495 -32.754811 -61.611448 -0.000157 -79.564559 -0.000167 -1.698635 7.071829 -14.775641 -5.218581 -3.359712 5.596913 7.385496 23.148027 2.272612 0.000004 -0.000001 -0.000001 0.915763 5.403944 -29.714168 0.382363 2.083612 -20.795006 -0.000000 0.000001 -0.000002 0.656300 4.925767 -25.952624 0.379112 2.075032 -20.705406 -0.000000 -0.000002 -0.000002 0.574708 4.751495 -24.069211 0.379108 2.075037 -20.705404 -0.000004 0.000001 0.000001 0.322889 4.082514 -17.072551 0.379106 2.075025 -20.705406 0.000000 -0.000002 -0.000000 0.000000 -0.000003 -0.000002 0.000000 -0.000003 -0.000002 0.000000 -0.000003 -0.000001 -0.000003 -0.000001 -0.000001 -0.000003 -0.000001 -0.000001 -0.000003 -0.000001 -0.000001 -0.000004 0.000000 -0.000002 0.738541 3.143535 9.934998 38.148242 29.627441 34.270624 0.002776 102.361142 -0.002744 -38.749138 12.160622 12.511159 -8.245042 0.297079 -8.931527 7.579907 -24.795272 -2.907024 -0.000002 -0.000003 -0.000001 0.905455 -3.314672 34.539457 0.218000 -1.409598 17.581779 0.000001 0.000000 -0.000002 -0.241996 -3.204335 32.825350 0.218118 -1.409974 17.586658 0.000000 0.000001 0.000002 -0.300130 -2.822099 28.489354 0.218003 -1.409596 17.581791 -0.000001 0.000001 0.000000 0.330076 -3.878174 20.013574 0.218176 -1.410124 17.588688 -0.000000 -0.000000 -0.000000 0.000001 -0.000001 -0.000002 0.000003 -0.000003 0.000003 0.000001 -0.000001 -0.000000 -0.000000 0.000001 -0.000000 -0.000000 0.000002 -0.000001 -0.000000 0.000001 -0.000000 -0.000000 0.000002 0.000000 -0.000000 0.000000 -0.000000 -0.000000 0.000000 -0.000000 -0.000000 0.000000 -0.000000 -0.000000 0.000000 -0.000000 -0.000000 0.000000 -0.000000 -0.000000 0.000000 -0.000000 -0.000000 0.000000 -0.000000 0.000000 0.000000 0.000000 -0.000000 -0.000000 -0.000000 
-0.493457 111.825821 2.713036 -95.435692 -7.262687 0.205756 -0.000000 0.000000 0.000000 -3.012218 13.110476 14.470370 12.983275 -1.268659 5.144811 38.456226 28.507577 -33.833854 -0.000000 0.000001 -0.000002 0.000000 -0.000001 -0.000000 -11.543922 -11.963880 -16.754673 18.162513 -1.415064 -5.178125 38.655326 -29.034752 31.856361 -0.000001 -0.000001 -0.000001 0.000001 -0.000001 0.000001 0.793559 0.622756 -1.935691 2.175464 1.765792 -0.628112 2.184287 1.673049 -0.615540 -1.461568 5.270856 -1.172003 -1.461571 5.270855 -1.172002 -0.000000 0.000000 0.000000 -1.461598 5.270854 -1.171997 -1.461564 5.270865 -1.172009 -0.000000 -0.000002 -0.000000 -0.000000 0.000000 0.000000 0.566333 0.008796 -3.366702 22.180725 -32.677551 -61.637560 0.000190 -79.574101 0.000191 -1.700042 7.067564 -14.775748 -5.218580 -3.359707 5.596914 7.385498 23.148030 2.272611 0.000000 0.000002 -0.000001 0.915766 5.403947 -29.714171 0.382358 2.083614 -20.795003 -0.000000 0.000001 -0.000000 0.656304 4.925767 -25.952622 0.379112 2.075027 -20.705408 -0.000003 0.000001 -0.000003 0.574708 4.751493 -24.069209 0.379107 2.075044 -20.705404 -0.000000 -0.000000 -0.000002 0.322890 4.082517 -17.072553 0.379110 2.075027 -20.705411 0.000001 -0.000002 0.000000 -0.000000 0.000002 0.000005 -0.000000 0.000002 0.000005 0.000000 0.000001 0.000006 0.000001 -0.000001 0.000001 0.000001 0.000000 0.000001 0.000001 -0.000001 0.000001 -0.000001 -0.000001 0.000001 0.736714 3.014545 9.892323 38.192656 29.768693 34.170798 -0.000193 102.320516 0.000217 -38.800799 12.148013 12.501121 -8.245043 0.297078 -8.931526 7.579905 -24.795279 -2.907034 -0.000000 0.000000 -0.000000 0.905456 -3.314671 34.539457 0.217997 -1.409599 17.581781 -0.000000 -0.000000 -0.000000 -0.241999 -3.204335 32.825346 0.218119 -1.409975 17.586656 0.000001 0.000001 -0.000001 -0.300126 -2.822099 28.489356 0.218005 -1.409596 17.581793 -0.000002 0.000002 -0.000000 0.330077 -3.878174 20.013571 0.218176 -1.410124 17.588693 -0.000001 -0.000002 -0.000001 0.000001 0.000000 0.000001 0.000004 0.000001 0.000003 0.000002 0.000000 0.000001 -0.000002 0.000001 0.000001 -0.000002 0.000002 -0.000000 -0.000002 0.000001 0.000001 -0.000002 0.000002 0.000001 -0.000000 0.000000 0.000000 -0.000000 0.000000 0.000000 -0.000000 0.000000 0.000000 -0.000000 0.000000 0.000000 -0.000000 0.000000 0.000000 -0.000000 0.000000 0.000000 -0.000000 0.000000 0.000000 0.000000 -0.000000 -0.000000 -0.000000 0.000000 0.000000 
-0.493144 111.828125 2.714081 -95.436977 -7.261705 0.205590 0.000000 -0.000000 -0.000000 -3.019878 13.110908 14.471074 13.007249 -1.282403 5.145063 38.429008 28.507307 -33.833021 -0.000000 -0.000000 0.000000 -0.000000 0.000000 0.000000 -11.546143 -11.962982 -16.755035 18.167262 -1.403149 -5.178206 38.651289 -29.034526 31.857184 0.000003 0.000003 -0.000000 0.000000 -0.000001 0.000000 0.788971 0.635441 -1.935444 2.156488 1.784835 -0.623364 2.165247 1.686276 -0.604413 -1.444879 5.250439 -1.109188 -1.444865 5.250441 -1.109184 -0.000000 -0.000000 0.000000 -1.444918 5.250426 -1.109177 -1.444798 5.250430 -1.109190 -0.000000 -0.000002 -0.000000 -0.000000 -0.000000 -0.000000 0.559589 -0.106512 -3.339565 22.173248 -32.629651 -61.709168 0.000047 -79.556070 0.000034 -1.707739 7.058305 -14.775338 -5.218577 -3.359713 5.596917 7.385493 23.148030 2.272613 0.000002 -0.000003 -0.000003 0.915761 5.403942 -29.714171 0.382360 2.083614 -20.795008 0.000000 0.000001 0.000002 0.656303 4.925769 -25.952624 0.379107 2.075030 -20.705406 0.000003 0.000002 -0.000001 0.574703 4.751493 -24.069202 0.379106 2.075045 -20.705408 -0.000001 -0.000001 0.000001 0.322886 4.082512 -17.072551 0.379104 2.075029 -20.705406 -0.000000 -0.000005 -0.000000 0.000001 0.000002 0.000002 0.000001 0.000002 0.000002 0.000001 0.000002 0.000002 0.000002 0.000000 0.000000 0.000002 0.000000 0.000001 0.000002 0.000000 0.000000 0.000000 0.000001 -0.000000 0.736777 2.888036 9.835431 38.219737 29.891807 34.148354 0.000012 102.275417 -0.000002 -38.833956 12.144338 12.498584 -8.245042 0.297078 -8.931528 7.579907 -24.795274 -2.907028 0.000000 0.000000 0.000003 0.905456 -3.314672 34.539457 0.217996 -1.409598 17.581779 -0.000001 0.000000 -0.000001 -0.241996 -3.204335 32.825350 0.218118 -1.409975 17.586658 0.000001 -0.000000 0.000001 -0.300128 -2.822099 28.489356 0.218001 -1.409598 17.581797 -0.000002 0.000001 -0.000001 0.330076 -3.878172 20.013580 0.218175 -1.410120 17.588685 -0.000001 -0.000004 -0.000001 -0.000001 0.000000 -0.000000 -0.000001 -0.000002 0.000003 -0.000001 0.000000 0.000000 0.000000 0.000001 0.000000 0.000000 0.000002 0.000000 0.000000 0.000001 0.000000 0.000000 0.000002 0.000000 0.000000 -0.000000 -0.000000 0.000000 -0.000000 -0.000000 0.000000 -0.000000 -0.000000 0.000000 -0.000000 -0.000000 0.000000 -0.000000 -0.000000 0.000000 -0.000000 -0.000000 0.000000 -0.000000 -0.000000 0.000000 0.000000 0.000000 0.000000 -0.000000 -0.000000 
